<?xml version="1.0" encoding="utf-8"?>
<!-- Generator: Adobe Illustrator 27.7.0, SVG Export Plug-In . SVG Version: 6.00 Build 0)  -->
<svg version="1.1" id="Layer_2" xmlns="http://www.w3.org/2000/svg" xmlns:xlink="http://www.w3.org/1999/xlink" x="0px" y="0px"
	 viewBox="0 0 413.6 75.4" style="enable-background:new 0 0 413.6 75.4;" xml:space="preserve">
<style type="text/css">
	.st0{fill-rule:evenodd;clip-rule:evenodd;fill:#68FFAD;}
	.st1{fill-rule:evenodd;clip-rule:evenodd;fill:#D6FFEC;}
	.st2{fill-rule:evenodd;clip-rule:evenodd;fill:#FF6005;}
	.st3{fill-rule:evenodd;clip-rule:evenodd;fill:#8800FF;}
	.st4{fill-rule:evenodd;clip-rule:evenodd;fill:#FFFFFF;}
	.st5{fill:#FFFFFF;}
</style>
<g>
	<g>
		<polygon class="st0" points="85.8,74.3 55.4,42.1 47.1,47 39.3,30.1 0.8,74.2 43.2,-0.7 		"/>
		<polygon class="st1" points="47.1,47 0.6,74.5 0.8,74.2 39.3,30.1 		"/>
		<polygon class="st2" points="85.9,74.5 59.8,74.5 47.1,47 55.4,42.1 85.8,74.3 		"/>
		<polygon class="st3" points="59.8,74.5 0.6,74.5 0.6,74.5 47.1,47 		"/>
		<g>
			<g>
				<path class="st4" d="M180.9,57.7c4.5-1.9,7.5-6.3,7.6-11.2c-0.3-7.1-6.2-12.7-13.4-12.4h-18.9v40.6h5.6V58.9h13.5l7.3,15.7h6.2
					L180.9,57.7z M178.6,52.7c-1,0.4-2,0.6-3.1,0.6h-13.8V39.6h13.8c3.9-0.1,7.2,2.9,7.4,6.9C182.8,49.2,181.1,51.7,178.6,52.7
					L178.6,52.7z"/>
				<polygon class="st4" points="348.7,34.1 354.3,34.1 354.3,74.7 348.7,74.7 348.7,34.1 				"/>
				<path class="st4" d="M336.6,54.4c0,5.6-2.3,10.9-6.3,14.7c-0.3,0.3-0.6,0.5-0.9,0.8l-2.5-5.3c5.6-5.9,5.4-15.2-0.4-20.8
					c-2.7-2.6-6.4-4.1-10.2-4.1h-9.1v29.4h9.1c2.1,0,4.1-0.4,6-1.3l2.4,5.1c-2.6,1.2-5.5,1.8-8.3,1.8h-14.7V34.1h14.7
					C327.6,34.1,336.6,43.2,336.6,54.4L336.6,54.4z"/>
				<path class="st4" d="M233,63.1l2.6,5.5c-7.9,8-20.7,8.1-28.7,0.2c-8-7.9-8.1-20.7-0.2-28.7c7.9-8,20.7-8.1,28.7-0.2
					c0.1,0.1,0.2,0.2,0.2,0.2l-2.6,5.5c-4.8-6.6-14-8-20.6-3.2s-8,14-3.2,20.6c4.8,6.6,14,8,20.6,3.2C231,65.4,232.1,64.3,233,63.1z
					"/>
				<polygon class="st4" points="144.1,74.7 138,74.7 123.2,43.1 108.4,74.7 102.3,74.7 120.1,36.5 121.3,34.1 125.1,34.1 
					126.3,36.5 				"/>
				<polygon class="st4" points="289.5,74.7 283.4,74.7 268.6,43.1 253.8,74.7 247.7,74.7 265.5,36.5 266.7,34.1 270.5,34.1 
					271.7,36.5 				"/>
				<polygon class="st4" points="408.2,74.7 402,74.7 387.3,43.1 372.5,74.7 366.3,74.7 384.2,36.5 385.3,34.1 389.2,34.1 
					390.4,36.5 				"/>
			</g>
		</g>
	</g>
	<g>
		<g>
			<g>
				<path class="st5" d="M405.9,36.6h2.3c1,0,1.8,0.8,1.8,1.8c0,0.8-0.4,1.5-1.1,1.7l1.6,2.5h-1.2l-1.5-2.4h-0.9v2.4h-1V36.6z
					 M408.1,39.2c0.5,0,0.9-0.4,0.9-0.8c0-0.5-0.4-0.8-0.9-0.8h-1.2v1.7H408.1z"/>
			</g>
		</g>
		<g>
			<path class="st5" d="M407.8,45.3c-3.1,0-5.6-2.5-5.6-5.6c0-3.1,2.5-5.6,5.6-5.6c3.1,0,5.6,2.5,5.6,5.6
				C413.4,42.8,410.9,45.3,407.8,45.3z M407.8,34.7c-2.8,0-5,2.2-5,5c0,2.8,2.2,5,5,5c2.8,0,5-2.2,5-5
				C412.8,36.9,410.5,34.7,407.8,34.7z"/>
		</g>
	</g>
</g>
</svg>
