<?xml version="1.0" encoding="utf-8"?>
<!-- Generator: Adobe Illustrator 27.7.0, SVG Export Plug-In . SVG Version: 6.00 Build 0)  -->
<svg version="1.1" id="Layer_1" xmlns="http://www.w3.org/2000/svg" xmlns:xlink="http://www.w3.org/1999/xlink" x="0px" y="0px"
	 viewBox="0 0 244.1 131.3" style="enable-background:new 0 0 244.1 131.3;" xml:space="preserve">
<style type="text/css">
	.st0{fill-rule:evenodd;clip-rule:evenodd;fill:#FFFFFF;}
	.st1{fill-rule:evenodd;clip-rule:evenodd;fill:#68FFAD;}
	.st2{fill-rule:evenodd;clip-rule:evenodd;fill:#D6FFEC;}
	.st3{fill-rule:evenodd;clip-rule:evenodd;fill:#FF6005;}
	.st4{fill-rule:evenodd;clip-rule:evenodd;fill:#8800FF;}
	.st5{fill:#FFFFFF;}
</style>
<g>
	<g>
		<g>
			<path class="st0" d="M61.7,118c3.6-1.5,5.9-4.9,6-8.8c-0.2-5.6-4.9-9.9-10.5-9.8H42.3v31.8h4.4V119h10.6l5.7,12.3h4.8L61.7,118z
				 M59.9,114.1c-0.8,0.3-1.6,0.5-2.4,0.5H46.7v-10.7h10.8c3.1-0.1,5.7,2.3,5.8,5.4C63.2,111.4,61.9,113.3,59.9,114.1L59.9,114.1z"
				/>
			<polygon class="st0" points="193.3,99.5 197.7,99.5 197.7,131.3 193.3,131.3 193.3,99.5 			"/>
			<path class="st0" d="M183.8,115.4c0,4.4-1.8,8.5-5,11.5c-0.2,0.2-0.5,0.4-0.7,0.6l-1.9-4.2c4.4-4.6,4.3-11.9-0.3-16.3
				c-2.1-2.1-5-3.2-8-3.2h-7.2V127h7.2c1.6,0,3.2-0.3,4.7-1l1.8,4c-2.1,0.9-4.3,1.4-6.5,1.4h-11.5V99.5h11.5
				C176.7,99.5,183.8,106.6,183.8,115.4z"/>
			<path class="st0" d="M102.6,122.2l2,4.3c-6.2,6.3-16.2,6.4-22.5,0.2c-6.3-6.2-6.4-16.2-0.2-22.5c6.2-6.3,16.2-6.4,22.5-0.2
				c0.1,0.1,0.1,0.1,0.2,0.2l-2,4.3c-3.8-5.1-11-6.3-16.1-2.5c-5.1,3.8-6.3,11-2.5,16.1c3.8,5.1,11,6.3,16.1,2.5
				C101,124,101.9,123.2,102.6,122.2z"/>
			<polygon class="st0" points="32.9,131.3 28.1,131.3 16.5,106.6 4.9,131.3 0.1,131.3 14.1,101.4 15,99.5 18,99.5 18.9,101.4 			
				"/>
			<polygon class="st0" points="146.9,131.3 142.1,131.3 130.5,106.6 118.9,131.3 114.1,131.3 128.1,101.4 129,99.5 132,99.5 
				132.9,101.4 			"/>
			<polygon class="st0" points="240,131.3 235.1,131.3 223.6,106.6 212,131.3 207.1,131.3 221.1,101.4 222,99.5 225.1,99.5 
				226,101.4 			"/>
		</g>
	</g>
	<g>
		<polygon class="st1" points="159.7,70 131.4,40 123.6,44.5 116.3,28.8 80.4,69.9 120,0 		"/>
		<polygon class="st2" points="123.6,44.5 80.3,70.1 80.4,69.9 116.3,28.8 		"/>
		<polygon class="st3" points="159.8,70.2 135.5,70.2 123.6,44.5 131.4,40 159.7,70 		"/>
		<polygon class="st4" points="135.5,70.2 80.2,70.2 80.3,70.1 123.6,44.5 		"/>
	</g>
	<g>
		<g>
			<g>
				<path class="st5" d="M238.1,101.6h1.8c0.8,0,1.4,0.6,1.4,1.4c0,0.7-0.3,1.1-0.9,1.3l1.3,2h-1l-1.2-1.9h-0.7v1.9h-0.8V101.6z
					 M239.8,103.6c0.4,0,0.7-0.3,0.7-0.7c0-0.4-0.3-0.6-0.7-0.6h-1v1.3H239.8z"/>
			</g>
		</g>
		<g>
			<path class="st5" d="M239.5,108.4c-2.4,0-4.4-2-4.4-4.4c0-2.4,2-4.4,4.4-4.4c2.4,0,4.4,2,4.4,4.4
				C243.9,106.4,242,108.4,239.5,108.4z M239.5,100.1c-2.2,0-3.9,1.8-3.9,3.9c0,2.2,1.8,3.9,3.9,3.9c2.2,0,3.9-1.8,3.9-3.9
				C243.5,101.8,241.7,100.1,239.5,100.1z"/>
		</g>
	</g>
</g>
</svg>
